# xmcd
#
# Track frame offsets:
#  150
#  9650
#  18575
#  28225
#  38321
#  49294
#  59651
#  70819
#  81871
#  93152
#  101792
#  111636
#  122141
#  133175
#  144531
#  160129
#  168557
#  179251
#  189000
#  198763
#  209072
#  219487
#  232042
#  243006
#  253628
#  261899
#  275260
#  285318
#  296945
#
# Disc length: 4079 seconds
#
# Revision: 0
# Processed by: cddbd v1.5.2PL0 Copyright (c) Steve Scherf et al.
# Submitted via: Collectorz.com_Music_Collector 6.11
#
DISCID=b40fed1d
DTITLE=Various Artist - Heartattack! 1954-1956 Wild Crazy L.A. R&B - Volume 2  []
DYEAR=1900
DGENRE=
TTITLE0=Ravon Darnell - Chicken Little
TTITLE1=Don and Dewey - Heartattack
TTITLE2=Ray Johnson and Bystanders - A Yellow Mellow Hardtop
TTITLE3=Cliff Chambers - Don't Talk Back
TTITLE4=Peppy Prince - Work, Man Work
TTITLE5=Paul Preston - The Chase
TTITLE6=Linda Hopkins - Three Time Loser
TTITLE7=Preachers - Chicken Papa
TTITLE8=Universal's - Black Beard
TTITLE9=Lil' Jim Stinney - Pretty Baby
TTITLE10=Dell Rays - Full House
TTITLE11=Bobby Hatfield - Hot Tamales
TTITLE12=Walt Reo and This Bishops - Twist With Mary Lou
TTITLE13=Heavy J. Lockett - Chicken In A Hurry
TTITLE14=Freddie Coaster with Standels - Drinkin'
TTITLE15=Kid GuitarThompson and The Scooters - My Baby Done Me Wrong
TTITLE16=Randy Thomas and The Twisters - Twistin' All Night Long
TTITLE17=Doc, Bill, Joseph and L. Leake - I Don't Like It
TTITLE18=Artie Wilson - Tarzan
TTITLE19=The Sinners - Nightmare
TTITLE20=Frankie Lucas - I Want To Rock You Baby
TTITLE21=Little Sammy - Papa Did The Chicken
TTITLE22=Luther Lee and The Caravels - Lunch Break
TTITLE23=Big Boy Groves - Bucket O Blood
TTITLE24=The Tra-Velles - Little Bad Wolf
TTITLE25=Marva Turner - Cool Operation
TTITLE26=Joe Liggins and The Honeydrippers - In The Wee Wee Hours
TTITLE27=Mel Curtis and His Minors - Get To Getting Pt. 1
TTITLE28=Gerry Maplewood - Blue Monkey
EXTD=
EXTT0=
EXTT1=
EXTT2=
EXTT3=
EXTT4=
EXTT5=
EXTT6=
EXTT7=
EXTT8=
EXTT9=
EXTT10=
EXTT11=
EXTT12=
EXTT13=
EXTT14=
EXTT15=
EXTT16=
EXTT17=
EXTT18=
EXTT19=
EXTT20=
EXTT21=
EXTT22=
EXTT23=
EXTT24=
EXTT25=
EXTT26=
EXTT27=
EXTT28=
PLAYORDER=
